<svg width="224" height="80" viewBox="0 0 224 80" fill="none" xmlns="http://www.w3.org/2000/svg">
<g clip-path="url(#clip0_20_591)">
<path d="M85.5389 25.9297V31.133H71.5267V36.7948H84.4227V42.0352H71.5267V52.9536H64.7974V25.9297H85.5389Z" fill="#306BEA"/>
<path d="M89.8066 25.8945H95.6213V30.4796H89.8066V25.8945ZM89.8066 32.9388H95.6213V52.9555H89.8066V32.9388Z" fill="#306BEA"/>
<path d="M98.4878 32.9763H104.691C107.144 41.8546 107.565 43.6724 108.214 47.4932C109.015 43.0541 109.131 42.5585 110.323 37.8508L111.546 32.9531H117.594L111.124 52.9327H104.96L98.4878 32.9763Z" fill="#306BEA"/>
<path d="M139.047 47.8576C138.369 48.9483 137.558 49.9533 136.632 50.8448C134.569 52.7113 131.873 53.7255 129.092 53.6792C123.155 53.6792 118.984 49.8584 118.984 43.3421C118.984 38.5208 121.36 32.3172 129.245 32.3172C131.938 32.2338 134.545 33.2735 136.442 35.1909C139.047 37.9882 139.2 41.8901 139.276 44.1456H125.005C124.968 46.6373 126.38 49.1197 129.59 49.1197C132.799 49.1197 133.913 47.0101 134.64 45.5975L139.047 47.8576ZM133.186 40.4706C133.138 39.4309 132.748 38.4352 132.079 37.6363C131.299 36.9114 130.271 36.5155 129.206 36.5294C128.071 36.5247 126.989 36.9971 126.218 37.8285C125.581 38.581 125.172 39.4957 125.035 40.4729H133.186V40.4706Z" fill="#306BEA"/>
<path d="M144.118 27.1914H149.979V33.4321H153.844V37.0307H149.94V46.0225C149.94 47.2451 149.94 48.315 151.468 48.315L153.578 48.2386V52.8236C152.554 53.0112 151.517 53.113 150.477 53.1293C148.444 53.1293 146.23 53.0158 144.968 51.1725C144.167 49.9892 144.128 48.5674 144.128 46.657V36.9913H141.215V33.3881H144.125L144.118 27.1914Z" fill="#306BEA"/>
<path d="M163.596 35.0386C164.895 33.9317 166.317 33.0518 169.371 32.7461V37.9726L167.423 38.2782C164.589 38.7738 163.748 39.1952 163.748 41.724V52.955H157.887V32.9383H163.626L163.596 35.0386Z" fill="#306BEA"/>
<path d="M172.46 38.6381C172.435 36.9107 173.215 35.2712 174.57 34.199C176.404 32.7471 178.78 32.4414 181.116 32.4414C183.568 32.4414 189.52 33.0134 189.52 38.1796V49.8159C189.52 51.9625 189.633 52.2682 190.092 52.956H184.316V51.115C182.788 52.2219 181.139 53.4909 178.205 53.4909C173.62 53.4909 171.659 50.198 171.659 47.3798C171.659 44.1633 174.227 42.3293 175.869 41.6416C177.511 40.9538 181.262 40.2661 183.754 39.8076V38.7377C183.677 37.8207 183.601 36.2854 181.461 36.2854C178.856 36.2854 178.511 37.8902 178.36 38.6243L172.46 38.6381ZM179.924 44.652C178.93 45.034 177.395 45.606 177.395 47.1436C177.457 48.32 178.458 49.2254 179.634 49.1675C180.359 49.1467 181.063 48.9221 181.667 48.5191C183.615 47.2965 183.691 45.4624 183.737 43.3922L179.924 44.652Z" fill="#306BEA"/>
<path d="M200.167 34.7726C200.706 34.108 201.387 33.5731 202.161 33.2072C203.312 32.7209 204.548 32.4616 205.796 32.443C207.031 32.4176 208.253 32.6931 209.355 33.2442C211.465 34.3511 212 36.155 212 39.258V52.9576H206.148V41.7034C206.148 39.9088 206.111 39.2511 205.882 38.7162C205.405 37.7065 204.351 37.0975 203.237 37.1878C200.137 37.1878 200.137 39.6795 200.137 42.1619V52.9576H194.262V33.015H200.199L200.167 34.7726Z" fill="#306BEA"/>
<path d="M39.6235 39.7904H45.2043C45.6489 39.7997 46.0194 39.4454 46.0287 39.0008C46.031 38.8873 46.0101 38.7738 45.9661 38.6696L36.363 12.5326C36.2473 12.2131 35.9439 11.9977 35.6035 12H30.0019C29.5573 11.9977 29.1937 12.3566 29.1914 12.8036C29.1914 12.9008 29.2076 12.9958 29.2424 13.0861L38.8431 39.2578C38.9612 39.5843 39.2762 39.7997 39.6235 39.7904Z" fill="#306BEA"/>
<path d="M38.616 67.5761H44.1968C44.6414 67.5785 45.0049 67.2195 45.0073 66.7726C45.0073 66.6753 44.9911 66.5804 44.9563 66.4901L25.155 12.5326C25.0392 12.2131 24.7359 12 24.3931 12H18.8193C18.3747 11.9977 18.0111 12.3566 18.0088 12.8035C18.0088 12.9008 18.025 12.9958 18.0597 13.0861L37.8565 67.0482C37.9746 67.3654 38.2779 67.5761 38.616 67.5761Z" fill="#306BEA"/>
<path d="M27.6287 67.5756H33.2095C33.6541 67.5964 34.0315 67.2514 34.0524 66.8067C34.057 66.6979 34.0408 66.5914 34.0037 66.4895L24.3682 40.3178C24.2524 39.9982 23.9491 39.7829 23.6087 39.7852H18.0001C17.5555 39.7968 17.2035 40.1673 17.2151 40.6119C17.2174 40.7022 17.236 40.7925 17.2684 40.8782L26.8692 67.0499C26.9873 67.3648 27.2906 67.5756 27.6287 67.5756Z" fill="#306BEA"/>
<path d="M40.2978 13.093L44.7995 25.336C44.9153 25.6555 45.2186 25.8709 45.5591 25.8686H51.1398C51.5844 25.8709 51.948 25.512 51.9503 25.065C51.9503 24.9678 51.9341 24.8728 51.8994 24.7825L47.3977 12.5326C47.2819 12.2131 46.9786 11.9977 46.6382 12H41.0574C40.6128 11.9977 40.2469 12.3543 40.2446 12.8012C40.2446 12.9008 40.2608 13.0004 40.2978 13.093Z" fill="#306BEA"/>
<path d="M17.333 67.5776H22.9138C23.3584 67.58 23.7219 67.221 23.7243 66.7741C23.7243 66.6768 23.708 66.5819 23.6733 66.4916L19.1462 54.2162C19.0304 53.8967 18.727 53.6813 18.3866 53.6836H12.8128C12.3682 53.6813 12.0023 54.0379 12 54.4848C12 54.5844 12.0162 54.684 12.0533 54.7766L16.5549 67.052C16.673 67.3739 16.988 67.5869 17.333 67.5776Z" fill="#306BEA"/>
</g>
<defs>
<clipPath id="clip0_20_591">
<rect width="200" height="56" fill="white" transform="translate(12 12)"/>
</clipPath>
</defs>
</svg>
